<svg xmlns="http://www.w3.org/2000/svg" width="1000" height="1000" viewBox="0 0 1000 1000">
  <!-- Bottom bar -->
  <rect y="911.142" width="815.185" height="88.8575" fill="black" />

  <!-- Right curved figure -->
  <path
    d="M945.869 146.447C924.378 88.304 897.918 45.399 868.834 21.53C839.749 -2.339 808.938 -6.434 779.129 9.607
       C749.32 25.649 721.433 61.332 697.939 113.495C674.445 165.658 656.069 232.692 644.438 308.658
       C632.807 384.625 628.281 467.179 631.26 549.009C634.239 630.838 644.631 709.417 661.517 777.785
       C678.402 846.153 701.259 902.2 728.064 940.961C754.868 979.721 784.792 1000 815.185 1000V901.924
       C790.753 901.924 766.699 885.623 745.153 854.465C723.606 823.307 705.232 778.254 691.659 723.297
       C678.086 668.34 669.732 605.174 667.337 539.395C664.942 473.617 668.581 407.256 677.93 346.19
       C687.28 285.125 702.052 231.24 720.937 189.309C739.823 147.377 762.24 118.694 786.202 105.799
       C810.163 92.904 834.931 96.196 858.31 115.383C881.69 134.57 902.959 169.059 920.235 215.797L945.869 146.447Z"
    fill="black" />
</svg>
