<svg xmlns="http://www.w3.org/2000/svg" width="1000" height="1000" viewBox="0 0 1000 1000">
  <!-- Center horizontal bar -->
  <rect x="0" y="489.173" width="1000" height="54.016" fill="#000000"/>

  <!-- Right-side wave spiral -->
  <path d="M457.445 2.11894C538.76 11.0825 616.107 48.2165 679.973 108.954C743.84 169.691 791.441 251.383 816.922 343.983C842.403 436.582 844.653 536.052 823.395 630.158C802.137 724.264 758.299 808.902 697.272 873.664C636.244 938.426 560.689 980.487 479.897 994.675C399.106 1008.86 316.603 994.557 242.533 953.519C168.464 912.481 106.058 846.499 62.9924 763.689C19.9263 680.878 -1.92266 584.85 0.132715 487.415L62.6403 489.294C60.8917 572.186 79.4794 653.881 116.118 724.331C152.756 794.781 205.846 850.914 268.86 885.827C331.874 920.74 402.064 932.91 470.796 920.84C539.528 908.77 603.806 872.987 655.725 817.892C707.644 762.796 744.939 690.79 763.023 610.731C781.108 530.671 779.194 446.048 757.516 367.27C735.838 288.491 695.342 218.992 641.009 167.321C586.675 115.649 520.873 84.0578 451.695 76.4321L457.445 2.11894Z" fill="#000000"/>
</svg>
