<svg width="1000" height="1000" viewBox="0 0 1000 1000" xmlns="http://www.w3.org/2000/svg">
  <path d="M676.328 0H768.115V1000H676.328V0Z" fill="black"/>
  <path d="M768.116 488.673V550.162H0V488.673H768.116Z" fill="black"/>
  <path d="M747.638 694.616C701.366 700.415 653.363 700.5 607.025 694.864C560.688 689.227 517.15 678.008 479.493 661.999C441.835 645.991 410.979 625.585 389.109 602.225C367.238 578.866 354.888 553.125 352.932 526.823C350.976 500.522 359.463 474.303 377.791 450.023C396.118 425.743 423.84 403.996 458.992 386.32C494.145 368.644 535.869 355.472 581.212 347.736C626.555 340.001 674.407 337.89 721.383 341.555L705.423 404.561C675.088 402.194 644.187 403.557 614.906 408.553C585.625 413.548 558.681 422.054 535.981 433.468C513.281 444.883 495.38 458.926 483.544 474.605C471.709 490.284 466.229 507.215 467.492 524.2C468.755 541.184 476.73 557.807 490.853 572.892C504.976 587.976 524.902 601.154 549.22 611.491C573.537 621.829 601.653 629.074 631.575 632.714C661.498 636.354 692.497 636.299 722.377 632.554L747.638 694.616Z" fill="black"/>
</svg>
