<svg xmlns="http://www.w3.org/2000/svg" width="1000" height="1000" viewBox="0 0 1000 1000" fill="none">
  <!-- Left vertical bar -->
  <rect x="273.992" y="158.095" width="26.4256" height="841.905" fill="black"/>
  <!-- Top horizontal bar -->
  <rect x="273.992" y="1000" width="32.381" height="449.235" transform="rotate(-90 273.992 1000)" fill="black"/>
  <!-- Right vertical bar -->
  <rect x="699.583" y="158.095" width="26.4256" height="841.905" fill="black"/>
  <!-- Left decorative arc -->
  <path d="M300.417 158.095C300.417 129.431 293.013 101.305 278.996 76.7285C264.979 52.1517 244.877 32.0483 220.841 18.5693C196.806 5.0903 169.74 -1.25717 142.541 0.206049C115.342 1.66927 89.0324 10.8881 66.4276 26.8762C43.8228 42.8644 25.7733 65.0201 14.2103 90.973C2.64735 116.926 -1.99403 145.699 0.782802 174.214C3.55963 202.73 13.6502 229.914 29.9748 252.858C46.2995 275.803 68.2439 293.644 93.4602 304.474L103.68 278.111C83.0055 269.232 65.0133 254.604 51.6287 235.792C38.2441 216.979 29.9708 194.691 27.6941 171.311C25.4173 147.932 29.2228 124.34 38.7033 103.062C48.1838 81.7827 62.9826 63.6172 81.5164 50.5085C100.05 37.3998 121.621 29.8412 143.922 28.6415C166.223 27.4418 188.414 32.6461 208.121 43.6976C227.828 54.7491 244.309 71.2319 255.802 91.3824C267.294 111.533 273.365 134.593 273.365 158.095H300.417Z" fill="black"/>
  <!-- Right decorative arc -->
  <path d="M699.583 158.095C699.583 129.431 706.987 101.305 721.004 76.7285C735.021 52.1517 755.123 32.0483 779.159 18.5693C803.194 5.0903 830.26 -1.25717 857.459 0.206049C884.658 1.66927 910.968 10.8881 933.572 26.8762C956.177 42.8644 974.227 65.0201 985.79 90.973C997.353 116.926 1001.99 145.699 999.217 174.214C996.44 202.73 986.35 229.914 970.025 252.858C953.701 275.803 931.756 293.644 906.54 304.474L896.32 278.111C916.994 269.232 934.987 254.604 948.371 235.792C961.756 216.979 970.029 194.691 972.306 171.311C974.583 147.932 970.777 124.34 961.297 103.062C951.816 81.7827 937.017 63.6172 918.484 50.5085C899.95 37.3998 878.379 29.8412 856.078 28.6415C833.777 27.4418 811.586 32.6461 791.879 43.6976C772.172 54.7491 755.691 71.2319 744.198 91.3824C732.706 111.533 726.635 134.593 726.635 158.095H699.583Z" fill="black"/>
</svg>
