<svg width="1000" height="1000" viewBox="0 0 1000 1000" xmlns="http://www.w3.org/2000/svg" fill="none">
  <!-- Vertical Bar -->
  <path d="M402.898 0 H466.666 V781.955 H402.898 Z" fill="black"/>

  <!-- Reversed Horizontal Top Bar (extending left from top of vertical bar) -->
  <path d="M-0.0001 0 H402.898 V55.1378 H-0.0001 Z" fill="black"/>

  <!-- Bottom Elliptical Shape -->
  <path d="M402.898 765.664C402.898 796.438 410.621 826.91 425.624 855.341C440.628 883.772 462.619 909.605 490.342 931.365C518.065 953.125 550.977 970.386 587.199 982.162C623.421 993.939 662.243 1000 701.449 1000C740.655 1000 779.478 993.939 815.7 982.162C851.922 970.386 884.834 953.125 912.557 931.365C940.28 909.605 962.271 883.772 977.274 855.341C992.278 826.91 1000 796.438 1000 765.664H936.302C936.302 789.872 930.227 813.843 918.425 836.208C906.622 858.573 889.323 878.894 867.515 896.011C845.707 913.129 819.817 926.707 791.324 935.971C762.83 945.235 732.291 950.003 701.449 950.003C670.608 950.003 640.069 945.235 611.575 935.971C583.081 926.707 557.191 913.129 535.383 896.011C513.575 878.894 496.276 858.573 484.474 836.208C472.671 813.843 466.596 789.872 466.596 765.664H402.898Z" fill="black"/>
</svg>
