<svg xmlns="http://www.w3.org/2000/svg" width="1000" height="1000" viewBox="0 0 1000 1000">
  <!-- Right vertical rectangle -->
  <rect x="881" y="132" width="119" height="738" fill="black"/>

  <!-- Top wave -->
  <path d="M1000 139C1000 112 970 85 915 62C860 39 782 21 691 11C600 1 499 -3 402 2C305 7 216 21 146 41C76 61 29 85 10 112C-9 139 0 167 38 192C76 217 140 239 222 255C304 270 401 278 500 278V245C425 245 352 239 289 227C227 215 178 199 150 180C121 160 113 139 128 119C143 98 179 79 232 65C285 50 352 40 426 36C500 32 576 34 645 42C714 50 773 63 815 81C857 98 879 118 879 139H1000Z" fill="black"/>

  <!-- Bottom wave -->
  <path d="M1000 861C1000 889 970 916 915 939C860 962 782 980 691 990C600 1001 499 1003 402 998C305 993 216 979 146 960C76 940 29 916 10 889C-9 862 0 834 38 808C76 783 140 761 222 746C304 730 401 722 500 722V756C425 756 352 762 289 774C227 785 178 802 150 821C121 841 113 862 128 882C143 903 179 921 232 936C285 951 352 961 426 965C500 969 576 967 645 959C714 951 773 938 815 920C857 903 879 882 879 861H1000Z" fill="black"/>
</svg>
