<svg xmlns="http://www.w3.org/2000/svg" width="1000" height="1000" viewBox="0 0 1000 1000">
  <!-- Left vertical bar -->
  <rect x="163.979" y="0" width="29.5699" height="1000" fill="black"/>

  <!-- Bottom horizontal bar connected to vertical bar -->
  <rect x="193.548" y="963.333" width="806.452" height="36.6667" fill="black"/>

  <!-- Spiral arc (unchanged) -->
  <path d="M183.254 331.988C160.498 334.969 137.384 332.982 115.431 326.159C93.478 319.335 73.181 307.829 55.875 292.397C38.569 276.965 24.645 257.954 15.017 236.615C5.388 215.276 0.275 192.091 0.011 168.583C-0.253 145.075 4.339 121.776 13.486 100.216C22.632 78.656 36.127 59.322 53.082 43.486C70.037 27.65 90.07 15.668 111.864 8.329C133.659 0.99 156.721 -1.541 179.538 0.903L176.398 31.697C157.82 29.707 139.041 31.768 121.296 37.744C103.55 43.72 87.239 53.475 73.434 66.369C59.628 79.264 48.641 95.006 41.193 112.56C33.746 130.115 30.007 149.086 30.222 168.227C30.437 187.368 34.6 206.246 42.44 223.621C50.279 240.996 61.617 256.474 75.708 269.04C89.799 281.605 106.325 290.974 124.2 296.53C142.075 302.086 160.895 303.703 179.423 301.276L183.254 331.988Z" fill="black"/>
</svg>
