<svg width="1000" height="1000" viewBox="0 0 1000 1000" fill="none" xmlns="http://www.w3.org/2000/svg">
<rect width="615.454" height="108.888" transform="matrix(-0.920907 -0.389782 -0.920907 0.389782 1000 239.893)" fill="black"/>
<rect width="615.454" height="108.888" transform="matrix(0.920907 -0.389782 0.920907 0.389782 332.948 438.229)" fill="black"/>
<rect width="615.454" height="108.888" transform="matrix(0.920907 -0.389782 0.920907 0.389782 332.948 834.902)" fill="black"/>
<rect width="615.454" height="108.888" transform="matrix(-0.920907 -0.389782 -0.920907 0.389782 1000 636.566)" fill="black"/>
<rect width="615.454" height="108.888" transform="matrix(0.920907 -0.389782 0.920907 0.389782 -3.05176e-05 362.548)" fill="black"/>
<rect width="615.454" height="108.888" transform="matrix(-0.920907 -0.389782 -0.920907 0.389782 667.052 560.885)" fill="black"/>
<rect width="615.454" height="108.888" transform="matrix(-0.920907 -0.389782 -0.920907 0.389782 667.052 957.558)" fill="black"/>
<rect width="615.454" height="108.888" transform="matrix(0.920907 -0.389782 0.920907 0.389782 -3.05176e-05 759.221)" fill="black"/>
</svg>
