<svg width="1000" height="1000" viewBox="0 0 1000 1000" xmlns="http://www.w3.org/2000/svg" fill="none">
  <path d="M516.949 145.669C516.949 119.018 503.975 92.8772 479.44 70.0934C454.906 47.3095 419.75 28.7557 377.801 16.4519C335.851 4.14819 288.717 -1.4339 241.529 0.313404C194.34 2.06071 148.907 11.0704 110.175 26.3617C71.4428 41.6529 40.8967 62.6396 21.8623 87.0368C2.82782 111.434 -3.96547 138.307 2.22202 164.729C8.4095 191.151 27.3406 216.11 56.9542 236.889C86.5679 257.668 125.729 273.47 170.174 282.575L181.737 264.647C143.112 256.734 109.079 243.002 83.3438 224.944C57.6082 206.886 41.1561 185.195 35.7789 162.233C30.4017 139.271 36.3054 115.917 52.8472 94.7148C69.3891 73.5125 95.9351 55.2741 129.595 41.9853C163.255 28.6965 202.739 20.8666 243.748 19.3481C284.757 17.8296 325.719 22.6807 362.175 33.3733C398.63 44.0658 429.182 60.19 450.504 79.9902C471.826 99.7905 483.101 122.508 483.101 145.669H516.949Z" fill="black"/>
  <path d="M826.742 716.806C871.388 725.593 910.901 741.114 940.98 761.68C971.058 782.245 990.548 807.067 997.329 833.444C1004.11 859.82 997.921 886.738 979.436 911.27C960.952 935.801 930.88 957.004 892.495 972.57C854.109 988.137 808.882 997.47 761.737 999.554C714.592 1001.64 667.335 996.393 625.113 984.389C582.891 972.386 547.321 954.085 522.276 931.478C497.231 908.871 483.671 882.825 483.072 856.176L516.917 855.934C517.437 879.094 529.222 901.729 550.987 921.375C572.752 941.022 603.664 956.926 640.358 967.358C677.051 977.789 718.119 982.348 759.09 980.537C800.062 978.725 839.366 970.614 872.725 957.086C906.083 943.558 932.217 925.132 948.281 903.813C964.345 882.495 969.724 859.101 963.831 836.179C957.938 813.257 941 791.685 914.86 773.812C888.721 755.94 854.382 742.451 815.583 734.815L826.742 716.806Z" fill="black"/>
  <rect x="483.051" y="141.732" width="33.8983" height="719.16" fill="black"/>
</svg>
