<svg viewBox="0 0 1000 1000" xmlns="http://www.w3.org/2000/svg">
  <!-- Head (curved top) -->
  <path d="M553.185 162.01C553.185 119.042 524.044 77.8343 472.173 47.4516C420.302 17.0688 349.949 0 276.592 0C203.236 0 132.883 17.0688 81.0121 47.4515C29.1409 77.8343 0 119.042 0 162.01H40.841C40.841 125.387 65.679 90.2634 109.891 64.3669C154.103 38.4705 214.067 23.922 276.592 23.922C339.118 23.922 399.082 38.4705 443.294 64.367C487.506 90.2634 512.344 125.387 512.344 162.01H553.185Z" fill="black"/>

  <!-- Central vertical spine -->
  <path d="M512.513 161.994 H553.554 V517.134 H512.513 Z" fill="black"/>

  <!-- Horizontal middle bar -->
  <path d="M24.024 517.134 H1000 V562.825 H24.024 Z" fill="black"/>

  <!-- Right vertical bar -->
  <path d="M999.91 519.211 H1063.88 V954.587 H999.91 Z" fill="black"/>

  <!-- Bottom bar -->
  <path d="M24.024 954.309 H1000 V1000 H24.024 Z" fill="black"/>
</svg>
