<svg width="1000" height="1000" viewBox="0 0 1000 1000" xmlns="http://www.w3.org/2000/svg" fill="none">
  <!-- Horizontal bar as a path to ensure compatibility -->
  <path d="M0 465.714 H1000 V554.286 H0 Z" fill="black"/>

  <!-- Top swirl -->
  <path d="M618.729 264.286C618.729 213.263 601.441 163.332 568.951 120.519C536.462 77.7062 490.16 43.8429 435.637 23.0173C381.113 2.19168 320.699 -4.70586 261.687 3.15741C202.675 11.0207 147.59 33.3086 103.08 67.3303C58.5708 101.352 26.5408 145.653 10.8571 194.885C-4.82667 244.117 -3.49352 296.174 14.6956 344.773C32.8846 393.372 67.152 436.433 113.36 468.76C159.569 501.086 215.743 521.294 275.101 526.945L283.102 465.609C237.606 461.278 194.549 445.788 159.131 421.011C123.713 396.234 97.4483 363.227 83.5067 325.978C69.5651 288.728 68.5433 248.826 80.5645 211.091C92.5858 173.356 117.136 139.4 151.252 113.323C185.367 87.2464 227.589 70.1631 272.821 64.1361C318.052 58.1091 364.358 63.3959 406.15 79.3583C447.941 95.3207 483.43 121.276 508.333 154.091C533.235 186.906 546.486 225.178 546.486 264.286H618.729Z" fill="black"/>

  <!-- Bottom swirl -->
  <path d="M207.921 486.041C138.352 506.67 79.6784 547.823 42.4483 602.101C5.21817 656.379 -8.12643 720.223 4.8135 782.154C17.7534 844.085 56.1292 900.042 113.042 939.965C169.954 979.888 241.67 1001.16 315.297 999.951C388.925 998.745 459.633 975.141 514.712 933.383C569.79 891.625 605.626 834.452 615.776 772.142C625.927 709.833 609.726 646.473 570.087 593.455C530.447 540.436 469.97 501.236 399.526 482.901L378.471 541.938C432.465 555.991 478.82 586.038 509.203 626.675C539.586 667.313 552.003 715.877 544.223 763.636C536.443 811.395 508.976 855.217 466.759 887.223C424.543 919.23 370.346 937.322 313.912 938.247C257.478 939.171 202.509 922.868 158.887 892.268C115.265 861.668 85.8505 818.778 75.9323 771.309C66.0141 723.84 76.2424 674.905 104.779 633.302C133.315 591.699 178.287 560.156 231.61 544.345L207.921 486.041Z" fill="black"/>
</svg>
