<svg xmlns="http://www.w3.org/2000/svg" width="1000" height="1000" viewBox="0 0 1000 1000">
  <!-- Right-side vertical bar -->
  <rect x="714.286" y="0" width="37.037" height="1000" fill="#000000"/>

  <!-- Dynamic curved flow shape -->
  <path d="M951.446 260.311C925.061 283.547 889.445 302.186 848.031 314.432C806.617 326.678 760.802 332.117 715.002 330.225C669.202 328.333 624.963 319.174 586.549 303.631C548.134 288.087 516.84 266.684 495.683 241.484C474.526 216.284 464.22 188.137 465.759 159.757C467.297 131.377 480.627 103.72 504.465 79.4535C528.303 55.1868 561.844 35.1284 601.855 21.2118C641.866 7.29521 686.998 -0.010129 732.9 0L732.891 15.5029C691.294 15.4937 650.395 22.1139 614.137 34.7252C577.878 47.3366 547.483 65.5138 525.881 87.5046C504.279 109.495 492.198 134.558 490.804 160.276C489.41 185.995 498.75 211.502 517.923 234.338C537.095 257.175 565.454 276.571 600.266 290.656C635.077 304.742 675.168 313.042 716.672 314.756C758.176 316.471 799.694 311.542 837.224 300.445C874.753 289.348 907.029 272.457 930.94 251.4L951.446 260.311Z" fill="#000000"/>

  <!-- Bottom base -->
  <rect x="0" y="976.974" width="751.323" height="23.0263" fill="#000000"/>
</svg>
