<svg xmlns="http://www.w3.org/2000/svg" width="1000" height="1000" viewBox="0 0 1000 1000">
  <!-- Vertical center bar -->
  <rect x="476.44" y="0" width="52.356" height="1000" fill="black"/>

  <!-- Upper arc pattern -->
  <path d="M500 0C632.6 0 759.8 26.3 853.6 73.2C947.3 120.1 1000 183.7 1000 250C1000 316.3 947.3 379.9 853.6 426.8C759.8 473.7 632.6 500 500 500V476.7C620.2 476.7 735.5 452.8 820.5 410.3C905.5 367.8 953.3 310.1 953.3 250C953.3 189.9 905.5 132.2 820.5 89.7C735.5 47.2 620.2 23.3 500 23.3V0Z" fill="black"/>

  <!-- Lower arc pattern -->
  <path d="M500 500C367.4 500 240.2 526.3 146.4 573.2C52.7 620.1 0 683.7 0 750C0 816.3 52.7 879.9 146.4 926.8C240.2 973.7 367.4 1000 500 1000V976.7C379.8 976.7 264.5 952.8 179.5 910.3C94.5 867.8 46.7 810.1 46.7 750C46.7 689.9 94.5 632.2 179.5 589.7C264.5 547.2 379.8 523.3 500 523.3V500Z" fill="black"/>
</svg>
